<svg height="100px" viewBox="0 0 99 14" fill="none" xmlns="http://www.w3.org/2000/svg">
<path d="M21.608 11.156C21.04 11.156 20.506 11.044 20.006 10.82C19.506 10.592 19.066 10.278 18.686 9.878C18.31 9.478 18.014 9.016 17.798 8.492C17.586 7.964 17.48 7.4 17.48 6.8C17.48 6.196 17.586 5.632 17.798 5.108C18.014 4.58 18.31 4.118 18.686 3.722C19.066 3.322 19.506 3.01 20.006 2.786C20.506 2.558 21.04 2.444 21.608 2.444C22.288 2.444 22.914 2.602 23.486 2.918C24.058 3.23 24.532 3.648 24.908 4.172L23.6 4.874C23.364 4.582 23.07 4.348 22.718 4.172C22.37 3.996 22 3.908 21.608 3.908C21.24 3.908 20.894 3.984 20.57 4.136C20.246 4.284 19.962 4.492 19.718 4.76C19.474 5.024 19.284 5.332 19.148 5.684C19.012 6.032 18.944 6.404 18.944 6.8C18.944 7.2 19.012 7.574 19.148 7.922C19.288 8.27 19.48 8.578 19.724 8.846C19.968 9.11 20.25 9.318 20.57 9.47C20.894 9.618 21.24 9.692 21.608 9.692C22.008 9.692 22.38 9.604 22.724 9.428C23.072 9.248 23.364 9.012 23.6 8.72L24.908 9.428C24.532 9.948 24.058 10.366 23.486 10.682C22.914 10.998 22.288 11.156 21.608 11.156ZM28.3639 11.156C27.8119 11.156 27.3079 11.014 26.8519 10.73C26.3999 10.446 26.0379 10.066 25.7659 9.59C25.4979 9.11 25.3639 8.58 25.3639 8C25.3639 7.56 25.4419 7.15 25.5979 6.77C25.7539 6.386 25.9679 6.05 26.2399 5.762C26.5159 5.47 26.8359 5.242 27.1999 5.078C27.5639 4.914 27.9519 4.832 28.3639 4.832C28.9159 4.832 29.4179 4.974 29.8699 5.258C30.3259 5.542 30.6879 5.924 30.9559 6.404C31.2279 6.884 31.3639 7.416 31.3639 8C31.3639 8.436 31.2859 8.844 31.1299 9.224C30.9739 9.604 30.7579 9.94 30.4819 10.232C30.2099 10.52 29.8919 10.746 29.5279 10.91C29.1679 11.074 28.7799 11.156 28.3639 11.156ZM28.3639 9.692C28.6559 9.692 28.9179 9.614 29.1499 9.458C29.3819 9.302 29.5639 9.096 29.6959 8.84C29.8319 8.584 29.8999 8.304 29.8999 8C29.8999 7.688 29.8299 7.404 29.6899 7.148C29.5539 6.888 29.3679 6.682 29.1319 6.53C28.8999 6.374 28.6439 6.296 28.3639 6.296C28.0759 6.296 27.8159 6.374 27.5839 6.53C27.3519 6.686 27.1679 6.894 27.0319 7.154C26.8959 7.414 26.8279 7.696 26.8279 8C26.8279 8.316 26.8979 8.602 27.0379 8.858C27.1779 9.114 27.3639 9.318 27.5959 9.47C27.8319 9.618 28.0879 9.692 28.3639 9.692ZM32.2981 11V5H33.7621V5.534C33.9661 5.318 34.2101 5.148 34.4941 5.024C34.7781 4.896 35.0841 4.832 35.4121 4.832C35.8281 4.832 36.2101 4.93 36.5581 5.126C36.9101 5.322 37.1901 5.584 37.3981 5.912C37.6101 5.584 37.8901 5.322 38.2381 5.126C38.5861 4.93 38.9681 4.832 39.3841 4.832C39.8241 4.832 40.2221 4.94 40.5781 5.156C40.9381 5.368 41.2241 5.654 41.4361 6.014C41.6521 6.37 41.7601 6.768 41.7601 7.208V11H40.2961V7.598C40.2961 7.366 40.2381 7.154 40.1221 6.962C40.0101 6.766 39.8581 6.61 39.6661 6.494C39.4781 6.374 39.2661 6.314 39.0301 6.314C38.7941 6.314 38.5801 6.372 38.3881 6.488C38.2001 6.6 38.0481 6.752 37.9321 6.944C37.8161 7.136 37.7581 7.354 37.7581 7.598V11H36.2941V7.598C36.2941 7.354 36.2381 7.136 36.1261 6.944C36.0141 6.752 35.8621 6.6 35.6701 6.488C35.4781 6.372 35.2641 6.314 35.0281 6.314C34.7961 6.314 34.5841 6.374 34.3921 6.494C34.2001 6.61 34.0461 6.766 33.9301 6.962C33.8181 7.154 33.7621 7.366 33.7621 7.598V11H32.2981ZM44.4262 14H42.9622V5H44.4262V5.762C44.6222 5.49 44.8622 5.27 45.1462 5.102C45.4342 4.93 45.7702 4.844 46.1542 4.844C46.5942 4.844 47.0042 4.926 47.3842 5.09C47.7642 5.254 48.0982 5.482 48.3862 5.774C48.6782 6.062 48.9042 6.396 49.0642 6.776C49.2282 7.156 49.3102 7.564 49.3102 8C49.3102 8.436 49.2282 8.846 49.0642 9.23C48.9042 9.614 48.6782 9.952 48.3862 10.244C48.0982 10.532 47.7642 10.758 47.3842 10.922C47.0042 11.086 46.5942 11.168 46.1542 11.168C45.7702 11.168 45.4342 11.084 45.1462 10.916C44.8622 10.744 44.6222 10.522 44.4262 10.25V14ZM46.1362 6.254C45.8322 6.254 45.5602 6.334 45.3202 6.494C45.0802 6.65 44.8922 6.86 44.7562 7.124C44.6202 7.388 44.5522 7.68 44.5522 8C44.5522 8.32 44.6202 8.614 44.7562 8.882C44.8922 9.146 45.0802 9.358 45.3202 9.518C45.5602 9.674 45.8322 9.752 46.1362 9.752C46.4442 9.752 46.7262 9.674 46.9822 9.518C47.2382 9.362 47.4422 9.152 47.5942 8.888C47.7462 8.62 47.8222 8.324 47.8222 8C47.8222 7.68 47.7462 7.388 47.5942 7.124C47.4422 6.86 47.2382 6.65 46.9822 6.494C46.7302 6.334 46.4482 6.254 46.1362 6.254ZM52.9147 11.156C52.3627 11.156 51.8587 11.014 51.4027 10.73C50.9507 10.446 50.5887 10.066 50.3167 9.59C50.0487 9.11 49.9147 8.58 49.9147 8C49.9147 7.56 49.9927 7.15 50.1487 6.77C50.3047 6.386 50.5187 6.05 50.7907 5.762C51.0667 5.47 51.3867 5.242 51.7507 5.078C52.1147 4.914 52.5027 4.832 52.9147 4.832C53.4667 4.832 53.9687 4.974 54.4207 5.258C54.8767 5.542 55.2387 5.924 55.5067 6.404C55.7787 6.884 55.9147 7.416 55.9147 8C55.9147 8.436 55.8367 8.844 55.6807 9.224C55.5247 9.604 55.3087 9.94 55.0327 10.232C54.7607 10.52 54.4427 10.746 54.0787 10.91C53.7187 11.074 53.3307 11.156 52.9147 11.156ZM52.9147 9.692C53.2067 9.692 53.4687 9.614 53.7007 9.458C53.9327 9.302 54.1147 9.096 54.2467 8.84C54.3827 8.584 54.4507 8.304 54.4507 8C54.4507 7.688 54.3807 7.404 54.2407 7.148C54.1047 6.888 53.9187 6.682 53.6827 6.53C53.4507 6.374 53.1947 6.296 52.9147 6.296C52.6267 6.296 52.3667 6.374 52.1347 6.53C51.9027 6.686 51.7187 6.894 51.5827 7.154C51.4467 7.414 51.3787 7.696 51.3787 8C51.3787 8.316 51.4487 8.602 51.5887 8.858C51.7287 9.114 51.9147 9.318 52.1467 9.47C52.3827 9.618 52.6387 9.692 52.9147 9.692ZM58.6658 11.108C58.3538 11.088 58.0518 11.026 57.7598 10.922C57.4718 10.814 57.2158 10.668 56.9918 10.484C56.7678 10.3 56.5958 10.08 56.4758 9.824L57.7118 9.296C57.7598 9.376 57.8378 9.462 57.9458 9.554C58.0538 9.642 58.1818 9.716 58.3298 9.776C58.4818 9.836 58.6478 9.866 58.8278 9.866C58.9798 9.866 59.1238 9.846 59.2598 9.806C59.3998 9.762 59.5118 9.696 59.5958 9.608C59.6838 9.52 59.7278 9.406 59.7278 9.266C59.7278 9.118 59.6758 9.004 59.5718 8.924C59.4718 8.84 59.3438 8.778 59.1878 8.738C59.0358 8.694 58.8878 8.654 58.7438 8.618C58.3638 8.542 58.0098 8.424 57.6818 8.264C57.3578 8.104 57.0958 7.898 56.8958 7.646C56.6998 7.39 56.6018 7.082 56.6018 6.722C56.6018 6.326 56.7058 5.984 56.9138 5.696C57.1258 5.408 57.3998 5.186 57.7358 5.03C58.0758 4.874 58.4418 4.796 58.8338 4.796C59.3098 4.796 59.7458 4.896 60.1418 5.096C60.5418 5.292 60.8578 5.57 61.0898 5.93L59.9318 6.614C59.8758 6.518 59.7978 6.43 59.6978 6.35C59.5978 6.266 59.4838 6.198 59.3558 6.146C59.2278 6.09 59.0938 6.058 58.9538 6.05C58.7738 6.042 58.6098 6.058 58.4618 6.098C58.3138 6.138 58.1938 6.206 58.1018 6.302C58.0138 6.398 57.9698 6.526 57.9698 6.686C57.9698 6.838 58.0298 6.952 58.1498 7.028C58.2698 7.1 58.4138 7.156 58.5818 7.196C58.7538 7.236 58.9178 7.28 59.0738 7.328C59.4258 7.444 59.7558 7.586 60.0638 7.754C60.3758 7.922 60.6258 8.128 60.8138 8.372C61.0018 8.616 61.0918 8.908 61.0838 9.248C61.0838 9.636 60.9678 9.976 60.7358 10.268C60.5038 10.556 60.2038 10.776 59.8358 10.928C59.4718 11.08 59.0818 11.14 58.6658 11.108ZM64.6569 11.156C64.1049 11.156 63.6009 11.014 63.1449 10.73C62.6929 10.446 62.3309 10.064 62.0589 9.584C61.7909 9.104 61.6569 8.574 61.6569 7.994C61.6569 7.558 61.7349 7.15 61.8909 6.77C62.0469 6.386 62.2609 6.05 62.5329 5.762C62.8089 5.47 63.1289 5.242 63.4929 5.078C63.8569 4.914 64.2449 4.832 64.6569 4.832C65.1249 4.832 65.5529 4.932 65.9409 5.132C66.3329 5.328 66.6649 5.598 66.9369 5.942C67.2089 6.286 67.4069 6.678 67.5309 7.118C67.6549 7.558 67.6829 8.018 67.6149 8.498H63.2289C63.2849 8.722 63.3769 8.924 63.5049 9.104C63.6329 9.28 63.7949 9.422 63.9909 9.53C64.1869 9.634 64.4089 9.688 64.6569 9.692C64.9129 9.696 65.1449 9.636 65.3529 9.512C65.5649 9.384 65.7409 9.212 65.8809 8.996L67.3749 9.344C67.1309 9.876 66.7669 10.312 66.2829 10.652C65.7989 10.988 65.2569 11.156 64.6569 11.156ZM63.1809 7.4H66.1329C66.0889 7.16 65.9949 6.944 65.8509 6.752C65.7109 6.556 65.5369 6.4 65.3289 6.284C65.1209 6.168 64.8969 6.11 64.6569 6.11C64.4169 6.11 64.1949 6.168 63.9909 6.284C63.7869 6.396 63.6129 6.55 63.4689 6.746C63.3289 6.938 63.2329 7.156 63.1809 7.4ZM71.7945 11V2.6H73.2585V11H71.7945ZM78.5103 9.194L79.8303 9.908C79.5543 10.284 79.2083 10.586 78.7923 10.814C78.3763 11.042 77.9223 11.156 77.4303 11.156C76.8783 11.156 76.3743 11.014 75.9183 10.73C75.4663 10.446 75.1043 10.066 74.8323 9.59C74.5643 9.11 74.4303 8.58 74.4303 8C74.4303 7.56 74.5083 7.15 74.6643 6.77C74.8203 6.386 75.0343 6.05 75.3063 5.762C75.5823 5.47 75.9023 5.242 76.2663 5.078C76.6303 4.914 77.0183 4.832 77.4303 4.832C77.9223 4.832 78.3763 4.946 78.7923 5.174C79.2083 5.402 79.5543 5.708 79.8303 6.092L78.5103 6.8C78.3703 6.64 78.2043 6.516 78.0123 6.428C77.8243 6.34 77.6303 6.296 77.4303 6.296C77.1423 6.296 76.8823 6.376 76.6503 6.536C76.4183 6.692 76.2343 6.9 76.0983 7.16C75.9623 7.416 75.8943 7.696 75.8943 8C75.8943 8.3 75.9623 8.58 76.0983 8.84C76.2343 9.096 76.4183 9.302 76.6503 9.458C76.8823 9.614 77.1423 9.692 77.4303 9.692C77.6383 9.692 77.8363 9.648 78.0243 9.56C78.2123 9.468 78.3743 9.346 78.5103 9.194ZM83.36 11.156C82.808 11.156 82.304 11.014 81.848 10.73C81.396 10.446 81.034 10.066 80.762 9.59C80.494 9.11 80.36 8.58 80.36 8C80.36 7.56 80.438 7.15 80.594 6.77C80.75 6.386 80.964 6.05 81.236 5.762C81.512 5.47 81.832 5.242 82.196 5.078C82.56 4.914 82.948 4.832 83.36 4.832C83.912 4.832 84.414 4.974 84.866 5.258C85.322 5.542 85.684 5.924 85.952 6.404C86.224 6.884 86.36 7.416 86.36 8C86.36 8.436 86.282 8.844 86.126 9.224C85.97 9.604 85.754 9.94 85.478 10.232C85.206 10.52 84.888 10.746 84.524 10.91C84.164 11.074 83.776 11.156 83.36 11.156ZM83.36 9.692C83.652 9.692 83.914 9.614 84.146 9.458C84.378 9.302 84.56 9.096 84.692 8.84C84.828 8.584 84.896 8.304 84.896 8C84.896 7.688 84.826 7.404 84.686 7.148C84.55 6.888 84.364 6.682 84.128 6.53C83.896 6.374 83.64 6.296 83.36 6.296C83.072 6.296 82.812 6.374 82.58 6.53C82.348 6.686 82.164 6.894 82.028 7.154C81.892 7.414 81.824 7.696 81.824 8C81.824 8.316 81.894 8.602 82.034 8.858C82.174 9.114 82.36 9.318 82.592 9.47C82.828 9.618 83.084 9.692 83.36 9.692ZM92.7902 7.208V11H91.3262V7.592C91.3262 7.356 91.2682 7.142 91.1522 6.95C91.0362 6.754 90.8802 6.6 90.6842 6.488C90.4922 6.372 90.2782 6.314 90.0422 6.314C89.8062 6.314 89.5902 6.372 89.3942 6.488C89.2022 6.6 89.0482 6.754 88.9322 6.95C88.8202 7.142 88.7642 7.356 88.7642 7.592V11H87.3002L87.2942 5H88.7582L88.7642 5.534C88.9682 5.318 89.2122 5.148 89.4962 5.024C89.7802 4.896 90.0862 4.832 90.4142 4.832C90.8502 4.832 91.2482 4.94 91.6082 5.156C91.9682 5.368 92.2542 5.654 92.4662 6.014C92.6822 6.37 92.7902 6.768 92.7902 7.208ZM95.7556 11.108C95.4436 11.088 95.1416 11.026 94.8496 10.922C94.5616 10.814 94.3056 10.668 94.0816 10.484C93.8576 10.3 93.6856 10.08 93.5656 9.824L94.8016 9.296C94.8496 9.376 94.9276 9.462 95.0356 9.554C95.1436 9.642 95.2716 9.716 95.4196 9.776C95.5716 9.836 95.7376 9.866 95.9176 9.866C96.0696 9.866 96.2136 9.846 96.3496 9.806C96.4896 9.762 96.6016 9.696 96.6856 9.608C96.7736 9.52 96.8176 9.406 96.8176 9.266C96.8176 9.118 96.7656 9.004 96.6616 8.924C96.5616 8.84 96.4336 8.778 96.2776 8.738C96.1256 8.694 95.9776 8.654 95.8336 8.618C95.4536 8.542 95.0996 8.424 94.7716 8.264C94.4476 8.104 94.1856 7.898 93.9856 7.646C93.7896 7.39 93.6916 7.082 93.6916 6.722C93.6916 6.326 93.7956 5.984 94.0036 5.696C94.2156 5.408 94.4896 5.186 94.8256 5.03C95.1656 4.874 95.5316 4.796 95.9236 4.796C96.3996 4.796 96.8356 4.896 97.2316 5.096C97.6316 5.292 97.9476 5.57 98.1796 5.93L97.0216 6.614C96.9656 6.518 96.8876 6.43 96.7876 6.35C96.6876 6.266 96.5736 6.198 96.4456 6.146C96.3176 6.09 96.1836 6.058 96.0436 6.05C95.8636 6.042 95.6996 6.058 95.5516 6.098C95.4036 6.138 95.2836 6.206 95.1916 6.302C95.1036 6.398 95.0596 6.526 95.0596 6.686C95.0596 6.838 95.1196 6.952 95.2396 7.028C95.3596 7.1 95.5036 7.156 95.6716 7.196C95.8436 7.236 96.0076 7.28 96.1636 7.328C96.5156 7.444 96.8456 7.586 97.1536 7.754C97.4656 7.922 97.7156 8.128 97.9036 8.372C98.0916 8.616 98.1816 8.908 98.1736 9.248C98.1736 9.636 98.0576 9.976 97.8256 10.268C97.5936 10.556 97.2936 10.776 96.9256 10.928C96.5616 11.08 96.1716 11.14 95.7556 11.108Z" fill="black"/>
<path d="M10 9.00041V4.99959C9.99982 4.82419 9.95353 4.65192 9.86577 4.50007C9.77801 4.34821 9.65187 4.22211 9.5 4.13441L6 2.134C5.84798 2.04622 5.67554 2 5.5 2C5.32446 2 5.15202 2.04622 5 2.134L1.5 4.13441C1.34813 4.22211 1.22199 4.34821 1.13423 4.50007C1.04647 4.65192 1.00018 4.82419 1 4.99959V9.00041C1.00018 9.17581 1.04647 9.34808 1.13423 9.49993C1.22199 9.65179 1.34813 9.77789 1.5 9.86559L5 11.866C5.15202 11.9538 5.32446 12 5.5 12C5.67554 12 5.84798 11.9538 6 11.866L9.5 9.86559C9.65187 9.77789 9.77801 9.65179 9.86577 9.49993C9.95353 9.34808 9.99982 9.17581 10 9.00041Z" stroke="#E91E63" stroke-width="0.900185" stroke-linecap="round" stroke-linejoin="round"/>
<path d="M5.5 9.00033C6.60457 9.00033 7.5 8.10472 7.5 6.99992C7.5 5.89513 6.60457 4.99951 5.5 4.99951C4.39543 4.99951 3.5 5.89513 3.5 6.99992C3.5 8.10472 4.39543 9.00033 5.5 9.00033Z" stroke="#E91E63" stroke-width="0.900185" stroke-linecap="round" stroke-linejoin="round"/>
</svg>
